<svg xmlns="http://www.w3.org/2000/svg" width="21.237" height="21.734" viewBox="0 0 21.237 21.734">
  <defs>
    <style>.a{fill:#a4a4a4;}
    </style>
  </defs>
  <path class="a" d="M734.107,321.753a2.7,2.7,0,0,1-3.025.7,2.648,2.648,0,0,1-1.5-1.563.286.286,0,0,0-.344-.228,4.58,4.58,0,0,0-4.082,3.249,7.58,7.58,0,0,0-.32,1.813c.027,1.649.006,3.3.008,4.948a.438.438,0,0,0,.025.253.119.119,0,0,0,.059-.017c.5-.506,1-1.014,1.5-1.517a.627.627,0,0,1,.48-.2.636.636,0,0,1,.461.189.66.66,0,0,1,0,.959q-1.357,1.37-2.727,2.728a.652.652,0,0,1-.934,0q-1.37-1.357-2.727-2.728a.66.66,0,0,1,0-.959.636.636,0,0,1,.461-.189.627.627,0,0,1,.48.2c.5.5,1,1.011,1.5,1.517a.119.119,0,0,0,.058.017.436.436,0,0,0,.025-.253c0-1.649-.02-3.3.008-4.948a7.58,7.58,0,0,0-.319-1.813,4.58,4.58,0,0,0-4.082-3.249.286.286,0,0,0-.344.228,2.648,2.648,0,0,1-1.5,1.563,2.691,2.691,0,0,1-3.344-3.844,2.578,2.578,0,0,1,2.508-1.337,2.493,2.493,0,0,1,2.254,1.58.761.761,0,0,0,.739.518,5.675,5.675,0,0,1,4.1,2.311c0-1.651,0-3.888,0-4.6a.274.274,0,0,0-.214-.309,2.693,2.693,0,0,1-.968-4.507,2.661,2.661,0,0,1,2.92-.505,2.687,2.687,0,0,1-.194,5.007.3.3,0,0,0-.232.344c.01.571,0,1.142,0,1.714,0,.288-.01,1.663-.011,2.853a5.676,5.676,0,0,1,4.1-2.3.761.761,0,0,0,.739-.518,2.493,2.493,0,0,1,2.254-1.58,2.579,2.579,0,0,1,2.508,1.337A2.7,2.7,0,0,1,734.107,321.753ZM716.238,318.6a1.361,1.361,0,1,0,.018,2.721,1.374,1.374,0,0,0,1.353-1.373A1.358,1.358,0,0,0,716.238,318.6Zm9.3-4.366a1.359,1.359,0,1,0-2.718,0,1.359,1.359,0,1,0,2.718,0ZM732.1,318.6a1.358,1.358,0,0,0-1.371,1.348,1.374,1.374,0,0,0,1.353,1.373,1.361,1.361,0,1,0,.018-2.721Z" transform="translate(-713.552 -311.526)"/>
</svg>
