<svg xmlns="http://www.w3.org/2000/svg" width="27.374" height="19.657" viewBox="0 0 27.374 19.657"><defs><style>.a{fill:#a4a4a4;fill-rule:evenodd;}</style></defs><path class="a" d="M3832.721,4492.327l.048-.049.007-.041.015-.06.086-.022.052-.034-.007-.029h.055l.015-.034.026-.012.1-.029,0-.011,0-.135.06-.023-.022-.056.063-.056-.019-.03.015-.052-.033-.034.052-.083-.03-.007,0-.048-.041-.015v-.011l.026-.056.011-.046-.008-.056.049-.042-.03-.06.056-.038.011-.135.03-.052,0-.007-.011-.026.037-.075-.067-.083.067-.041v-.026l0-.063.037.007.034-.03h.007l.112.034.041-.034.03.011-.007-.033.048-.042v0l-.018-.056.056-.112.015-.007.145-.083.011-.007.052-.037.048.037h.026l.034-.019.056.03h0l.1-.135.1.071.138-.1,0-.007.022-.045,0-.008.044-.019.153-.143.045.022.171-.075.146.079.075-.03v0l-.011-.026.089-.089.093-.03.1-.1.078-.041h.071l.034.037.022.038-.034.075.034.011,0,.049.037.015.03.067.115-.049.045-.026.048-.03.074-.116.034-.034.059-.022h.071l.008.044.067-.015.034.042h.093l.331-.15.042.019-.015.063,0,0,.011-.023.022-.041.146-.094.067.007.026.057.082-.038.011-.007.06-.187.108-.019.015-.019.015-.042,0-.011,0-.042-.037.019-.06-.022.018-.045-.026-.019v-.079l.048-.082.082-.016-.022-.048.1-.116.179-.011.022-.056-.022-.007-.015-.06.049-.008.082-.015.048-.041.026-.041-.015-.067.052-.034.022-.052.034-.026-.038-.06-.052-.094-.116-.079v0l.045-.075-.048-.052-.052,0-.038-.03,0-.086h0l-.022,0-.019,0-.056.026-.056-.1-.041.035-.1-.016-.042.042-.123-.086-.082.026-.019.042-.067-.056,0-.03-.071,0-.045-.026-.038.011-.06-.063-.1.018-.022-.018-.029.015.011.052-.026-.014-.011.029.015.075-.049.038-.033-.019,0-.142-.034.007-.026-.03.071-.063-.026-.023-.052.011-.089-.049h-.052l-.026.061-.1.052.03.026.008.063.037.019-.045.034-.015,0-.067-.044-.093-.026-.085.044-.03.045-.052-.007-.071.049-.093-.023-.037-.064-.03.016,0,.007.019.03-.134.187-.026.038-.045-.083-.115,0-.022.019.022.048-.026-.015-.015-.041.078-.094-.048-.03-.026.011-.085-.083-.1.038-.071-.071-.075.18-.052-.022-.041-.094-.034-.019-.019.049-.037.019-.085-.083-.075.026-.019,0-.067-.049-.011-.135.034-.052,0-.139-.041-.049-.019.034-.078-.049-.1.078h-.007l.011-.124.034-.037.008-.007-.071-.1-.015-.007-.041-.022-.052-.03-.037-.053-.1.022.037-.1-.015-.052-.056-.008-.022-.06.008-.075.026-.037,0-.03,0-.007-.071-.184-.07-.108-.1-.083-.1,0-.063-.053-.209-.022.038-.086.07-.052.045.007.048-.042.03.012.1-.06h.123l.094-.108.048-.016.131.1.1-.022.089.03.086-.007.041.049.011-.038.089-.071.022-.086.1-.06.015-.075.063-.03.116-.052.089-.026.044.045.067-.027.052.063.127-.067.019.06.071-.008.019-.049.089-.06.026-.053.108-.045.026-.019.187-.161.045.007-.015-.041.03-.033-.022-.03.041-.071.066-.012.016.019.029-.026.015.026.03-.041,0,0,.008,0,.06.029.067-.011.134.037.026.071.026.03.022-.038.048,0,.011-.045.1-.067.06.034.078-.03.026.038.086-.03.019.049.052-.049.09-.007.071-.078.015.033.034-.03.06,0,.052.011.007.026.019-.026.034.18.063-.06.03.049.052-.03.026.022.078-.052v-.045l.075-.052.034.037.033-.019.015.023.085-.083.06-.056,0-.042.048.019.045-.022v.038h.019l.038-.053.037.012.03-.1.056.052.052-.078.045.015.007-.022h.034l-.026-.063.026-.038-.011-.056.026-.007.011.022.089-.042v-.052l.034-.034.067.019.022.06.019-.06.052,0,.03-.079.045-.019.175-.015.019-.045.1-.022.13.082.053-.049.029.019.038-.063.075,0-.012-.022.116-.046h.011l.052.008.085-.071.3-.1.033-.034.086,0,0-.1.06.022,0-.029.06,0,.034-.03.1.026.112-.056.075-.037.041,0-.015-.019.019-.007h.071l.16-.12.06.007.019-.034.015.075.052.029-.03.03.1.056,0,.033.037.016.011,0,.041.007.1-.116.07,0,.007-.034.06.008.056-.053.071,0,.048.123.011.011.03-.022,0-.008.022-.083.063-.007.026-.049.056-.008.045.019.067.06.052-.007.011.06.022,0,.026-.007.007-.078.052,0,.03-.1.025.008.026-.026.041-.034.011.139.067.057h.037v.007l.019.067h.03l.044-.045.213-.075.041-.079.041-.019.056.057-.011.06.1-.007h.019l.1-.03.093.022.175-.1.063-.038.063-.008.216-.154.134-.1.019-.068.1-.022.034-.038,0,0h0l.048.049.06,0,.063-.033h.011l.022.071.111.026.142-.063.079.012.048-.03.052.026.056-.037.071.045v.074l.018.008.041.029.038.026.063-.008.074-.037-.015.074.019.016.227-.113.034,0,.011.042.056.03.053-.008.026.019.089-.03.007.041.011.075v.011l-.042.094-.111.094-.026.049.063.168.06.071.063-.038.033-.1.108-.052.123.03.078-.03.026.071.149-.083.138-.124,0-.044-.045-.052,0-.045v-.008l.089-.045.146-.056.007,0,.071.019.19-.157h.048l.086-.068.265-.116.183-.176v-.056l.253-.086.38-.135.167-.075.082-.041.254-.139.283-.135.067-.03.153-.06.182-.06.086-.053.022.023.056-.011.116-.057-.012-.063.332-.146.492-.237.022-.015.485-.191.06-.052.041-.033.142-.049.145.03.164-.079.034-.045.279-.116h-.034l.038-.045-.038-.038v-.008l.034-.056-.026-.1-.03-.033-.056.03-.026-.064.026-.015-.052-.048-.078-.067-.052.03-.049-.03-.029.041-.03-.029-.049.038h-.044l-.019-.008-.015-.037-.03-.094-.056.029-.067-.007,0,0-.026-.049.093-.1-.022-.033-.041.019-.015-.016-.011-.019,0-.011.1-.195.049-.071.141-.1-.011-.057-.026-.015.138-.06.008,0v-.038l.052-.055-.022-.075.063-.042.074.026.015-.02.008-.014.067-.146.093-.056.048-.022,0-.031-.13-.1.019-.053-.167-.067.059-.1-.011-.03.044-.053-.011-.022.037-.03-.022-.135.078-.078.048.074.1-.034.049-.03.007-.067-.082-.022-.019-.026.082-.063-.007-.038.085-.049-.022-.094.022-.022-.044-.056.082-.045-.034-.067-.052-.026-.011-.049.06-.079,0-.184.015-.026.026-.026.011-.012.063-.026.06-.079.071-.064.03-.026-.038-.079.041-.071-.019-.046-.041.016-.037-.034.007-.09.045-.06-.089-.18.059-.034.008-.045.03-.026-.011-.03.037-.094.078-.052.026-.06.033-.033v-.105l.045-.1.167.011.011-.026.019-.041.019-.1.089-.041v-.008l0-.018v-.023l.13-.15-.011-.026.026-.049-.015-.038.052.019.093-.011v-.011l-.011-.03-.022-.056-.123-.063-.045,0-.045-.038-.011-.056-.063.007-.1-.079v-.044l-.063-.049-.008-.045.089-.1.093-.038.022.03.044,0,0-.067.041-.019.108-.085.044.019.149,0,.138-.037.052-.045.074,0,.03-.019.131.048.041-.041.157.067-.022-.1.048-.049.037.007.022-.078-.022-.053.015-.053.034-.075.071-.063-.03-.067.034-.056.1-.026.026-.049.015-.023.026-.052-.063-.071.067-.206-.018-.049.085-.015.067.03.038-.008.03-.048.078-.034.045-.049v-.034l.037-.026-.007-.03.011,0,.007.007.126-.023.041.083.075.049.082.052-.022.06.082.033.067-.026-.044.061h.085l.048-.049.131.007.056.015.026.037.056,0,.038.078.018-.022,0,0,.045.03-.015.057.026.015-.011.019.026.048-.06.124.037.1-.011.053.09-.022.015-.038.1.049-.044.029-.056.131.011.035h.041l-.026.194-.09.029-.007.023.022.105.112.082.011.161.029.038.008.063v.015l-.037,0-.041.082,0,.064.048.041,0,.045-.052.019-.011.037.026.1.033.022-.026.06-.026.011-.033-.045-.008.026-.015.09,0,.007.029,0,.03.008.011.041-.093.188v0l0,.026.045.03.037-.02.045.011.067.012.019.03-.089.042v.056l.093.023-.008-.045.079-.038h.011l.03.045.044-.007.03.038v.057l.041-.049.063-.015-.015.06.078.033,0,.042.052.015.052.011.071-.015.108.086.041-.008.138-.045.037.127v0l0,0,.079.034,0,.063.03.022.052-.071.007,0,.06.071.123-.023.093.052h0l.03-.074.026-.007h.015l.06.071.071-.038.037.026.026-.012,0,.086.067.06.011.011.1.038.041.044.086.015.126-.124.03.015.019-.019.026.026.026-.03.075.026.041-.011.029,0,.008-.03.026,0,.022.053.007,0,.067,0,.19.049.011.011.06.061v-.042l.063,0,0,.06.041-.02.1.117.056,0,.022.03.015-.023.044.038.011-.026.026,0,0-.026.048,0,.022.026.034-.083.111-.034.045.038h.044l.007.034.022-.026,0,.026.03,0-.008.022.067.022.048.06.007-.03.03.03.041,0,.007-.022.011.053.022-.037.03.007-.019-.022.022-.041.015.03.022-.007-.022.023.045-.008-.015.03.089-.015.019.023.019-.038.019.03,0-.038.1-.011.03-.079.026-.011.1.03.1-.083.011.019.071-.026.011.022.067,0,.056.064.019-.015.1.071.1.127.112-.063.089.034.041.007.056.108.008.127.015.019.067.011.052-.045.011.045-.019.011.022,0,.03.038.041.011.007.034.049.027.007,0-.026.109-.03.195.03.131-.034.015-.123.229-.034-.015-.067.053-.067.161-.116.191-.1.12-.071.044-.115.153-.067.21.018.221.1.311.06.079.115.063h.078l.049.03-.008-.026.03.052-.1.517-.015.307.119.577.2.891.041.24,0,.176-.071.221-.056.075-.116.094-.268.146-.227.131-.351.24-.187.146-.316.165-.272.112-.366.112-.909.254-.4.124L3856,4485l-.264.112-.2.094-.13.056-.455.247-.041.026-.32.277-.071.038-.112.075-.045.067-.007.074.052.022-.026.057.022.033-.142.075-.019.007-.19.128-.168.142-.071.083-.044.094-.026.138-.044.008-.071.075-.086-.008-.06.057-.123.168-.019.075-.089.082-.034,0-.041-.068-.1.03-.082.083-.071.146-.067.273-.026-.008-.038.083.008.348,0,.049,0,.052.082.371.079.1.13.015-.015.038.1.161.085.071.086.022.044-.019.019-.045-.019-.053.052,0,.03-.034.085.026.041-.034,0-.071.048.015.011-.033.037.033-.044.072.074.022-.015.056-.034-.008-.026.038-.015-.038-.019.108-.041-.052-.026.015.048.1-.022,0-.019-.053-.063.063-.022-.041-.034.019-.011-.034h-.034l-.082.056-.06.083-.007.053.037.03-.019.041-.078-.033-.026.029-.172.064-.116.2,0,.1.022.03.026-.011-.034.03.019.03-.071.071-.056.019-.019.038-.022-.034-.048-.007-.082.071-.048.083-.038.15,0,.075.026.094h.074l-.03.071.03.041.048-.048.079-.038.015.011-.045.027-.011.037.019.019.022-.022.044.008-.044.071-.071-.041-.019.022.026.026-.049,0v.061l.06,0,.019.034-.034.037,0,.072-.033-.086-.116-.056,0-.06-.06-.045-.234-.071-1.495-.12-.529-.03-.4,0-.383.015-.093.008-.119-.03-.522,0-.354.03-.257.048-.067.034-.019.079-.044.026-.038-.034-.115-.015-.7.048-.425.03-.3.063-.272-.029-.257-.011-.12.019-.018.022v.016l-.063-.012-.026.042-.041-.037-.056,0-.074.049.008-.042.03-.034-.052-.071-.2-.06-.2-.011-.03-.056-.033,0,.018-.06-.126,0,.063-.026.015-.086.019,0,.037.06.026-.011-.011.026.041.038.044-.02.049-.071,0-.075h-.108l-.041-.083-.052.007-.048.042-.041-.063.089-.083-.015-.053-.06-.019.033-.045.056.007.012.038.041-.015.019-.1.063-.083.067-.127-.026-.045.012-.052.1-.063.1-.124-.089-.026-.015-.093.078-.057.012-.078.041-.038.231-.128.019-.038-.03-.067.022-.063-.048-.063-.008-.049.026-.034h.037l-.063-.052.026-.045-.045-.03-.011.022-.03-.049-.044.034-.03-.06-.012.026-.063.011-.142-.067-.044.056-.083.019h-.026l.007.052-.015-.011-.034-.034.011.041-.03.019,0,.075-.071.06h-.049l-.055-.049-.067,0-.085.022-.015.03-.108.045-.235.053.022.026-.026.038-.078.033-.06-.033.018.033-.045.008-.033.041.011.026-.071.052-.041-.012.033.03-.123.094.008.019-.052.049.007.038-.078.113,0,.056.034.064.063-.042-.011.056.056.03.082.108.082.052.034.135-.026.052.034.063.052-.045.034.034.019-.015.037.019.06-.056.056.06-.071.079.019.044.134-.034.067.022-.015.027.022-.023,0,.026.03-.019.052.019-.034.019-.034-.011.056.06h.048l.007.06.026,0-.022.034-.06-.022-.026.019.015.022.011-.019.015.042-.026.071.019.045-.042.044h-.041l0,.03.07.031.056-.064.075-.038-.03.038.037.052-.1.03.03.022,0,.03.011.019h-.063l-.108.071-.023.064.038.029-.041.016-.026.022-.212-.015-.156.1-.22.011-.082.053.008.048-.071,0,.015-.038-.052-.022-.03-.06-.1-.045-.019-.034-.074-.007-.06-.056-.148-.064-.082.016-.049-.016-.078.075-.067-.064-.015.026.019.049-.019-.034-.063.053.019-.008v.022l.034.019.12-.03.015.035-.026.01.022,0,.022-.034-.015-.056.048-.034.193.023.06.026-.089,0,.052.019.022.033-.034.015-.044-.029-.015.026.164.019h.089l.011.038.063.007.015.034.1.044-.071.027-.365-.038-.592.083-.156.056-.03.03.011.034-.037-.042-.138.019-.089.06-.012.037-.193.03-.008.034-.085.044-.022.068.022.015-.03.026-.008-.026-.067.019-.052-.015.026-.015,0-.063-.06-.044-.123-.038-.51.011-.764.059-.562.079-.674.12-.212.108-.067-.011-.015-.034-.075-.026,0-.083-.03-.03.041-.052.048.011.044-.037.015-.078.048.014.071-.1.134-.042.041.068.119.064.089,0,.138.079.1,0,.048-.048,0-.1-.022-.044-.089-.072-.1-.044-.034-.045.037.041.108.049.19.09.254.1.238.026.57-.049.313-.09.365-.082.06.022.019.042.242.1.007.078.071-.1-.019-.038-.03,0v.057l-.056-.03-.056-.075,0,.026-.06-.056h.019l-.063-.022-.037-.071-.116-.067-.063-.052-.1-.008-.03-.034-.067.007-.079-.12-.089-.048-.067.045-.019.041-.041-.052-.038.007-.086-.12-.052.03.011-.057-.067-.079-.242-.158v-.037l-.03.011-.063-.056.011-.026-.063.019-.071-.045-.074-.026-.075.037.008-.053-.052-.011.022.079-.093.056-.063.007-.015-.03-.056-.007.011-.03-.026-.019.126-.042.022-.033-.026-.038-.138-.012-.1.026-.063.049-.033.075-.063,0-.116.064-.142-.011-.071.008-.071-.026-.1.059-.085-.022-.082.029-.042.042-.037.011-.022-.03-.06.086-.075.048,0,.049-.056.011-.03.127-.086.023-.063-.031.1-.131-.022-.049.041-.045-.048-.09-.115.079-.083.023-.048.052-.015,0,.026.011-.007.038.041.056-.045.139-.1.038v.067l-.115.131-.187.086-.063.011-.026.037-.026-.056-.067,0-.07.034,0,.034.03.01-.011.038-.041.015-.022-.037-.015.041v.015l-.067.015-.007-.026.015-.067-.048-.026-.212.108-.015,0-.033.022-.045-.019-.015-.034-.03.011,0-.015.048-.034.056-.138.1-.068-.007-.044-.056.015-.086-.1-.041.007,0-.038-.089.086-.041-.042-.052.034-.034.052.008.03-.045-.022-.03.019-.011.056-.056.011-.052-.018.056-.124-.044-.033-.022.033-.063.008,0,.049-.026-.034-.019.041-.037,0,.007.045-.037,0-.03.038-.03-.022-.067.06v-.06l-.052.008,0-.026-.03-.015.019-.056-.019,0,.041-.015.015-.071.067-.056.115.022,0-.082.038-.007.019.026.078-.041-.019-.056.045-.071.03,0,.015-.034-.019-.015-.075.022-.041-.022-.075.034-.019.045-.026-.019-.007-.056.06-.022-.033,0v-.06l.074-.03.019-.034-.041,0,.018-.057-.033-.022.007-.019-.037.03-.052-.042-.056,0-.038.063-.041-.056-.037.007.026.015-.042.034.045.011-.078.045.011.057.019.021.022-.059.1.044-.063.079-.026-.015-.026.041-.041-.011-.011.063-.026.019-.019-.023-.022.045-.022-.022.06-.075-.1-.067-.1.015-.034-.083-.011.034-.063.034v.067l-.026-.019,0,.041-.052,0-.018.071.037.045-.03.008v.063l-.041.029.019.03.06-.019.034.034-.093.038-.056.071.041.063h.067l-.1.052-.052-.082-.053.015.011-.056-.029-.037h-.037l-.008.037-.052-.037-.049.019-.041.089-.112.079-.037-.029-.06,0-.071,0-.146.075-.067.008-.056.063-.053.007-.015.045-.056.023.015.011-.108.038.06-.083,0-.026-.037-.026-.082.034-.022-.015-.019.026,0-.045-.03-.015-.141.067,0-.03-.045-.015-.037.074-.041-.033-.033.033-.045-.022-.071.075.011.056h-.048l-.034.048.015.022-.034.019.023.06-.038.019-.022.071-.019.142.075.042-.026.033-.048,0v.026l0,.06.037.022-.041.068-.044.007-.011.078.056.016,0,.041-.082.019-.015.049-.033.015.015.019.056-.011-.056.029.008.03h-.03l-.022.061.052.075.022,0,.018.063-.033.015.022.031-.019.06h.049l.033-.008.038,0,.034-.075.041.011.059-.038.019-.03-.03-.019.041-.011.019-.038.019.026.019-.022.034.007.052-.146.056-.019-.008.079.123,0v.045l.075.015-.078.063.019.064-.026.022-.034-.015-.007-.038-.048.011.03-.06-.1.082-.011-.033-.071-.022.026.056-.034.049.045-.03.019.023-.082.059-.041-.033-.041.06.041.01-.034.019-.033-.019-.015.019.037.03-.093.049.093,0,.067-.06v.038l.041-.011.034-.064.052-.03.094,0,.03.038.141-.044-.078.079-.119.243-.108.12.012.022.111.041-.029-.037-.015-.042.03-.022.026.019.044-.052.075-.188.167-.108-.015-.049.015-.022.153,0,.1-.052,0,.038-.108.1.007.063-.063.1.034.038.026-.016.116.034.056-.018.015.026.082-.057.13.1-.011.031.034.011.019.044.052,0,.015.037-.048.038-.026-.067-.108-.034-.044.038-.037.094-.011-.019-.06.038-.037-.019-.063.138.026.053-.145.2-.06.037-.056-.022-.041.06-.015-.007,0-.131-.045-.007-.034.026-.007-.068-.034-.015-.033.071-.037.019.034-.1-.079-.044-.052.018-.03.053-.067-.019.015.063-.085-.019-.026-.075-.041.034v.056l-.038.034v-.03l-.1-.056-.112.049-.029.048.022,0-.015.026-.041-.022-.03.038.052.064-.067-.031-.063-.044h-.049l-.071-.12-.126-.026.011-.041-.037-.056.011-.079-.052-.075,0-.045v0l-.127-.07-.011-.049-.134.056.015-.075-.022-.011-.022-.075-.067-.045.022-.052-.119-.061-.146,0-.022-.124-.048,0-.026-.061.052-.063Zm1.129,1.172v0l0,0,.007,0v0l0,0v.007l0,0,0,0h0v0Zm21.087-7.243,0,0,0-.007v0h0l-.007,0v0h0l0,0h.015l0,0h.022l0,0v0l0,0h-.007v0h0v.007l0,0v.015h-.011l0,0h-.007l0,0v0l0-.008h0v0Zm-.1.082v-.022l.056-.033.026.033-.034.019.022.052-.048,0Zm-20.125,4.958,0,0v0l0,0,.007,0,0,.007v0l-.007,0Zm-.585.311,0,0,0,0,0,0v0l0,0h0l0,0,0,0Zm.053,1.868,0,0v0h.007v0l0,.007v0h-.007v-.008Zm.883-2.314v0l0-.007,0-.007h.008l0,.011-.008.007Zm-.268,1.217h.019v.008l-.008,0h-.011v-.011Zm-.134-1.082,0,0h.008l0,.007,0,.007,0,0,0-.008h-.007l0,0Zm-.525.45,0,0v0l.015-.011,0,0v.008l0,0,0,0h-.007Zm-.063-.135,0-.011h.007v-.008l0,0h0l0,0,0,0,0,.008,0,0,0,0,0,0h0l0,0Zm.123.981h.019v.007h0l-.012,0h0l0,0v0Zm-.089-.465v0h.011v.011l-.011.008,0,0v0Zm.782.682v0l0-.007,0,0,.011-.008,0,0,0,0,0,0,0,0-.011.011,0,0Zm-.171-1.352v-.007l.007-.008v-.011l.007.008v.011l-.007.007-.007,0,0,0v0Zm.231-.27,0-.007,0,0h.011l0,.008,0,.008h-.019l0,0Zm-.768.348,0-.007h0l0,0,0,0h.011l0,0v0l0,0v0l0,0-.008.007h0l-.007,0Zm-.1.232.007,0,.007-.007h.008v.011l0,0h0l0,0h-.011v0l0,0Zm.41-.524h0l.007,0h0v0l0,0v0l0,0h-.015l0,0Zm3.409-.135v0l0-.007.015-.007v.026h-.007l0,0h0l0,0v-.007Zm-2.914,1.359,0-.011h0l.011,0,0,0,0,0v0l0,0,0,0-.007.007,0,.007h-.007v-.011Zm-.525-1.157,0,0v0l0,0h.007v.015l.007.008v0h-.007v0l0,0h0l0,0v0l0-.007,0,0h0Zm.06-.071v0l0,0,0,0v-.007l0,0,0,0,.015,0v0h0l0,0v.007h-.007l0,0h-.007l0,0v.012Zm-.48,1.179v-.007l0,0h.022l0,.011v.011h0v0h-.011l0,0v-.008Zm3.7-1.326,0,0v0l0,0,.007-.011,0-.011h0l.007.026v0l0,.007,0,0,0,0,0,0h-.007Zm-2.851,2.36,0,0,.008-.015,0-.007v-.008l0,0h.015v.011l0,.007,0,0v0l-.011.007,0,0Zm-.66-1.438,0-.011,0,0h0l0,0v0l0-.007.011,0h0V4492l0,0-.007.007,0,.012,0,0Zm-.085-.371,0-.008v-.011h.022l0,0v.011h0l-.007,0,0,0,0,0h-.011v-.007Zm.126.542.008-.011v0h-.008v-.008l0,0,0,0h.007v0l0,.007,0,0v0l0,.007,0,.012,0,.011,0,0-.007,0h0v-.008l0,0v-.008Zm.525.116.007-.007,0,0,.011,0h0l0,0v0h0l0,0v.019l0,0,0,0-.007-.007h0v0h0l-.008,0h0v0h0v-.007l0,0,0,0Zm-.171-1.037v-.019l.007-.007.026-.016,0,0,0,0,0,0,0,0h0l0,0,0,0,0,0,0,0-.008.011h0l-.007,0,0,0,0,.007-.008.008,0,.011,0,0h-.007v0Zm.224.955v-.029l0,0,0,0,.008,0,0,0,0,0h0v.008l0,.007v0l0,.007,0,0v.008l0,0-.008.007h-.018Zm3.107-1.135,0,0v-.008l0,0,.007-.007v-.008h0v0h0l.008,0h.011l0,0v.007l.011,0v.011l-.008,0,0,0-.015,0-.008,0h-.011l0,0v-.016Zm-3.614,1.446v-.008h0v-.011h0l.007,0,0-.007h.023l.007,0h.019l0,0,.008-.015,0,0,0,0h.015l0,.008,0,0v0h-.015l0,0-.015.016,0,0h-.015l0,0-.007,0-.011,0h-.011l-.007,0,0,0h0l0,0Zm.029-1.195v-.007h0l0,0,.008-.011,0-.007v-.007h0l0,0,0,0v.007h0l.011,0h0l0,0,.007-.007h.007l0,0,0,.008v.007l0,0,0,0-.008.011h0l-.019.015h0l0,0h0l0,0,0,0,0-.007v-.012Zm.563-.06.007-.007,0-.007.007-.008,0-.007,0-.007,0,0v0l.007,0,.011-.019.007,0h.015l0,0h.008l0,.008v0h0l-.008.007h-.019l-.007.015h0l0,0v0l0,.008v0l0,0h0l0,0h0l0,0,0,0v0l-.011,0,0,0,0,.011,0,0,0,0h0v-.016Zm-.909.72,0-.03.075-.034.015.042-.071.094Zm.521.463.108-.048.075-.1.045.034.022-.016-.015.038-.093.056-.019.042-.112.015Zm2.567-.127-.052-.019.045-.041-.03-.056-.1.056.033-.071-.049-.06-.078-.026,0,.019-.115-.008-.112.064.019.029-.111.154-.015.1-.108.022.063-.06-.078-.015v-.019l.011-.064.067-.112-.011-.067-.026-.008-.085.079-.03-.1-.078.034-.033-.045,0-.038.063-.056.048.008.048-.045.038.011.063-.057.093.011.045-.078-.03-.034.052-.034.034.019-.011-.038.026-.06.1-.083-.015.135.044,0,0,.042.041,0,.033-.083.045-.019-.015-.045.108-.007.015-.03.056-.019-.011-.075h-.056l.153-.052v-.057l.029,0,0,.03.142.015.026.008,0,.044h.1l.007.038.03,0-.067.045-.034-.038-.085.008.007.034.052.015.011-.026.038.086.029.019.149-.034.045.008-.022.079.015.067.037.03.064-.022-.015-.026.044-.008.03-.071.142-.041.018.034-.056.053-.056.063.011.049h.038l-.052.079.019.026.052-.03.112-.056-.015.045.063.078.112.015-.023.064-.1.026-.06.057-.078.007-.022,0,.022-.034.033-.042-.041-.052-.052-.022-.153.029-.082.1-.048-.038-.056,0-.03.061.052.018,0,.03-.1.067,0-.049-.07-.038-.138.026-.033.03h-.09Zm7.375-1.314h0l0,0,0-.007,0,0v0l0,0v.007Zm-2.21.184,0,0v0l0,0,0,0h0l0,0,0,0Zm-3.711-.506,0,0h.007v.007l-.007.007h0v-.012Zm-.473.263,0,0,0,0v0h0v.008l-.007,0h-.007Zm6.35.393h0l0,0,0-.008,0,0h0l0,0v0l0,0v0Zm-4.647-.977h0l0-.007v-.007l.007,0v0l.007,0,0,0h-.011Zm-.708-.019h.008l0,0,0,.007-.008.011v-.011l0,0,0,0Zm.026.016,0,0,0-.007v0l.011,0v.015l-.007,0Zm4.781.647h0l0,0,0,0v-.007h0l.011,0,0,0v.007h-.008Zm-4.714-.217,0,0,0,0v0h0l0,0,0,0v0l0,.007v0h-.008l0-.007Zm4.546.228.011-.007h0v0l0,0v0h0l0,.008-.007,0,0,0-.008,0,0,0Zm-4.527-.547.007,0h.019l0,0v.012l-.019-.007-.011,0v-.008Zm2.705.915v0l.007-.011,0,0,.008.007v0h-.008l0,0,0,.007,0,0,0,0h0v0Zm2.561-.405,0,0h0l.007,0,0,0h.008l0,0V4491h-.029Zm-.783.09,0,0v0l.007-.007v0l0,0,.008,0,0,0h0l0,0,0,0,0,.007h-.008l0,0,0,0-.012,0,0,0Zm-4.5-.1,0,0,0,0v-.015h.007l0,.008,0,0h0v.011h-.007l-.008,0h0Zm5.2,0h0l.007,0,.008,0h.011l0,0v.007l0,0h-.007l-.008,0-.007,0,0,0,0,0,0,0Zm-5.157-.018v0l.007-.007,0-.008v0l0,0h.007l0,0,0,.012,0,.007v0h0l-.007.007,0,0,0,0-.007,0,0,0Zm.164-.277v0l.012-.011h0l.015,0,0,0v.011l-.011.012h-.019l0,0Zm.079.048,0,0v-.008l0,0,0,0,0,0,.011-.011,0,0v.015l-.015.026h-.007l-.011,0v0Zm4.9.359h0v0l0,0,0-.007v0h0l.012,0h0l0,0h0l.007,0,0,0,.007,0h.007v0l0,0h0l0,0v0h.007v.007l0,.008,0,0-.015.007h-.011l-.011,0-.008.007-.007,0-.008,0Zm-4.96-.722v-.023l.008,0,0-.008.008,0h.011l.007-.008h0l0,.011v0l-.007.011-.015.008-.011.007Zm-.238.456.007,0,.007,0h0l0,0h.007l.007,0v0l-.007.011v.007l0,0-.011,0h0v-.007l0-.007v-.008h-.007l0,0Zm3.063.454,0,0,.008,0v-.007l0,0v0l0,0h0v-.007h0l0,0v.007l0,0v.008h.008l0,0,.007.007v.008l-.007,0h0l-.03,0,0,0Zm2.541-.038v-.008h.012l.007,0v0l.008.007,0,0h0l.011.015,0,0,0,0v0h-.015l0,0,0,0,0,0-.011,0v0l0-.011v-.007l0-.008v0Zm-5.325-.607,0-.007h.041l0,0v.012l-.011.007,0,0,0,0h-.026l0-.007Zm4.986.674.007-.008.011-.007h.011l.007,0,0,.007.008.011,0,.007v.007l0,0-.008,0v0h-.007l-.011-.008h-.008v0l-.008,0,0,0h0l0-.007v0Zm-4.632-.857,0,0,0,0,.007,0,.008,0,0,0,0,0-.011,0v-.008l0,0,0-.007h-.015v0l0,0,0-.008,0-.007.008-.008h0l.011-.007,0,0,.011,0,0,0,0,0,0,0-.007.008v.022l0,0h.022l0,.007,0,.008,0,.007,0,0,0,0,0,.008,0,0h-.007l-.008,0-.007,0Zm5.225-1.419.026-.071-.019-.038.026-.041.026,0,.011.034-.033.045.033.045-.037.037Zm-6.536,1.79.019-.03.1-.038.034.082-.056.03-.037-.037-.03.037Zm.8,0v-.049l.037-.019.022-.048.071-.008.007.042-.06.049-.06.112Zm5.067-1.1-.074.015.037.045-.011.026-.033,0-.008-.03-.074,0-.008-.03-.026,0,.012-.03-.053-.153.056.015.044-.019.038.019.011.068-.03-.053-.044.03.011.041.052.057Zm-4.7.517.019-.022.1.011-.067.112.019.008-.011.038.026.007-.049.022-.029-.019-.086.079h-.06l-.034-.019.03-.064-.048-.041,0-.057.07-.033.056.026.011-.041.041.019Zm4.993-1.019-.1.086.03.022.015.1.075.022-.052.063-.026-.056-.063.071-.041-.093-.089-.008-.041-.038-.119.041-.108.1-.044-.03.011-.03-.082-.044-.034-.067.03-.049.056.03.053,0,0-.052.093-.1,0-.038.078.023.071.063.112.015.022-.015-.008-.056.049-.042.029.008.027-.042.018-.008.008.052.037-.044.06.011v.064Z" transform="translate(-3832.68 -4473.91)"/></svg>